<svg width="432" height="1079" viewBox="0 0 432 1079" fill="none" xmlns="http://www.w3.org/2000/svg">
<path d="M19.7425 269.177C47.3117 325.338 94.5731 368.691 137.896 414.014C181.219 459.338 222.081 511.558 229.957 573.631C245.219 692.359 135.435 810.101 177.281 922.424C208.296 1005.19 305.28 1038.2 390.449 1061.35C444.111 1075.64 503.188 1089.92 554.388 1066.77C630.203 1032.28 649.895 935.725 656.295 852.961C667.618 699.256 664.664 544.565 646.941 391.353C630.695 254.89 592.788 102.663 473.649 34.678C405.219 -4.24093 321.034 -7.1968 244.234 10.0458C114.758 39.6045 -59.0266 104.634 19.7425 269.177Z" fill="url(#paint0_linear_19_215)"/>
<defs>
<linearGradient id="paint0_linear_19_215" x1="688.5" y1="460.5" x2="15.6836" y2="638.932" gradientUnits="userSpaceOnUse">
<stop stop-color="#48B84A" stop-opacity="0.6"/>
<stop offset="1" stop-color="#080C14" stop-opacity="0"/>
</linearGradient>
</defs>
</svg>
