<svg width="105" height="105" viewBox="0 0 105 105" fill="none" xmlns="http://www.w3.org/2000/svg">
<g filter="url(#filter0_d_19_610)">
<circle cx="52.4995" cy="39.4986" r="34.4995" transform="rotate(90 52.4995 39.4986)" fill="#48B74A"/>
</g>
<path d="M37.5033 25.8341C35.7593 26.2582 34.665 28.0363 35.1027 29.7256C35.2395 30.2386 35.4925 30.7036 35.8345 31.0593C36.1423 31.3739 50.7097 41.1197 51.2432 41.3591C52.0571 41.7284 53.0214 41.7147 53.8558 41.3249C54.5055 41.0171 68.7789 31.4628 69.1414 31.0935C70.8443 29.3563 69.9142 26.4018 67.4794 25.8273C66.8366 25.6768 38.1325 25.6837 37.5033 25.8341Z" fill="white"/>
<path d="M35.0001 41.0734C35.0001 46.6132 35.0206 49.1505 35.0753 49.4036C35.3283 50.6072 36.2995 51.5921 37.5374 51.8862C38.1803 52.0366 66.7202 52.0366 67.4383 51.8862C68.6831 51.6263 69.6884 50.6278 69.9415 49.4036C70.0304 48.9864 70.0509 33.0852 69.962 33.1263C69.9347 33.1331 66.6313 35.3353 62.6167 38.0163C58.6021 40.6973 55.1004 43.0021 54.8269 43.132C54.0746 43.515 53.4317 43.6586 52.5084 43.6586C51.5851 43.6586 50.9422 43.515 50.1899 43.132C49.9163 43.0021 46.4147 40.6973 42.4001 38.0163C38.3855 35.3353 35.0821 33.1331 35.0548 33.1263C35.0206 33.1126 35.0001 36.6895 35.0001 41.0734Z" fill="white"/>
<defs>
<filter id="filter0_d_19_610" x="-6.10352e-05" y="-0.000976562" width="104.999" height="104.999" filterUnits="userSpaceOnUse" color-interpolation-filters="sRGB">
<feFlood flood-opacity="0" result="BackgroundImageFix"/>
<feColorMatrix in="SourceAlpha" type="matrix" values="0 0 0 0 0 0 0 0 0 0 0 0 0 0 0 0 0 0 127 0" result="hardAlpha"/>
<feOffset dy="13"/>
<feGaussianBlur stdDeviation="9"/>
<feColorMatrix type="matrix" values="0 0 0 0 0.0658854 0 0 0 0 0.0730469 0 0 0 0 0.1375 0 0 0 0.08 0"/>
<feBlend mode="normal" in2="BackgroundImageFix" result="effect1_dropShadow_19_610"/>
<feBlend mode="normal" in="SourceGraphic" in2="effect1_dropShadow_19_610" result="shape"/>
</filter>
</defs>
</svg>
