<svg width="35" height="35" viewBox="0 0 35 35" fill="none" xmlns="http://www.w3.org/2000/svg">
<path d="M8.00008 17.1C8.00008 16.5463 8.34209 16.0886 8.78582 16.0162L8.90918 16.0062L27.091 16.0062C27.5931 16.0062 28.0001 16.4959 28.0001 17.1C28.0001 17.6537 27.6581 18.1113 27.2144 18.1837L27.091 18.1937L8.90917 18.1937C8.4071 18.1937 8.00008 17.704 8.00008 17.1Z" fill="#626262"/>
<path d="M19.2077 9.08946C18.7797 8.66325 18.7782 7.97073 19.2044 7.54267C19.5919 7.15353 20.1994 7.11692 20.6283 7.43371L20.7512 7.53934L29.5741 16.3243C29.9644 16.713 29.9999 17.3227 29.6806 17.7516L29.5742 17.8744L20.7513 26.6609C20.3232 27.0871 19.6307 27.0857 19.2045 26.6577C18.817 26.2686 18.7829 25.6608 19.1015 25.2333L19.2077 25.1109L27.2519 17.099L19.2077 9.08946Z" fill="#626262"/>
</svg>
