<svg width="35" height="35" viewBox="0 0 35 35" fill="none" xmlns="http://www.w3.org/2000/svg">
<path d="M26.9999 17.9C26.9999 18.4537 26.6579 18.9114 26.2142 18.9838L26.0908 18.9938L7.90901 18.9938C7.40693 18.9938 6.99992 18.5041 6.99992 17.9C6.99992 17.3463 7.34192 16.8887 7.78565 16.8163L7.90901 16.8063L26.0908 16.8063C26.5929 16.8063 26.9999 17.296 26.9999 17.9Z" fill="#626262"/>
<path d="M15.7923 25.9105C16.2203 26.3368 16.2218 27.0293 15.7956 27.4573C15.4081 27.8465 14.8006 27.8831 14.3717 27.5663L14.2488 27.4607L5.42589 18.6757C5.03559 18.287 5.00008 17.6773 5.31939 17.2484L5.42583 17.1256L14.2487 8.33914C14.6768 7.91289 15.3693 7.91432 15.7955 8.34234C16.183 8.73145 16.2171 9.33916 15.8985 9.76668L15.7923 9.88913L7.74812 17.901L15.7923 25.9105Z" fill="#626262"/>
</svg>
